<svg width="69" height="56" viewBox="0 0 69 56" fill="none" xmlns="http://www.w3.org/2000/svg">
<g clip-path="url(#clip0_1374_36)">
<path d="M39.1496 16.87L37.8396 15.87C37.6348 15.7043 37.3729 15.626 37.1108 15.6522C36.8486 15.6784 36.6074 15.807 36.4396 16.01L18.3096 36.83L18.5896 37.14L23.0796 33C22.9299 32.9398 22.8061 32.8291 22.7297 32.6871C22.6532 32.5451 22.6289 32.3807 22.661 32.2227C22.6931 32.0646 22.7795 31.9227 22.9053 31.8218C23.0311 31.7208 23.1883 31.6671 23.3496 31.67C23.495 31.67 23.6366 31.7166 23.7536 31.803C23.8706 31.8894 23.9568 32.011 23.9996 32.15L29.9196 26.66C30.0102 26.587 30.1231 26.5472 30.2396 26.5472C30.356 26.5472 30.4689 26.587 30.5596 26.66L30.8596 26.88C30.9611 26.9528 31.0861 26.9849 31.2101 26.9701C31.3341 26.9553 31.4481 26.8946 31.5296 26.8L39.2696 18.12C39.3518 18.0339 39.4146 17.931 39.4536 17.8184C39.4925 17.7058 39.5068 17.5862 39.4954 17.4676C39.484 17.349 39.4473 17.2343 39.3876 17.1312C39.3279 17.028 39.2467 16.939 39.1496 16.87Z" fill="#303030"/>
<path d="M47.6703 22.73C43.7028 25.553 39.2581 27.6364 34.5503 28.88C29.8777 30.0683 25.0965 30.7786 20.2803 31C20.3773 31.7102 20.5516 32.4077 20.8003 33.08C23.5203 35.54 44.0003 31.34 48.0003 26.48C48.8503 25.47 47.6703 22.73 47.6703 22.73ZM23.3503 33C23.2158 33 23.0843 32.9601 22.9725 32.8854C22.8607 32.8107 22.7735 32.7045 22.722 32.5802C22.6706 32.4559 22.6571 32.3192 22.6833 32.1873C22.7096 32.0554 22.7743 31.9342 22.8694 31.8391C22.9645 31.744 23.0857 31.6793 23.2176 31.653C23.3495 31.6268 23.4862 31.6403 23.6105 31.6917C23.7348 31.7432 23.841 31.8304 23.9157 31.9422C23.9904 32.054 24.0303 32.1855 24.0303 32.32C24.0316 32.4097 24.015 32.4987 23.9813 32.5818C23.9476 32.6649 23.8975 32.7404 23.8341 32.8038C23.7707 32.8672 23.6952 32.9173 23.6121 32.951C23.529 32.9847 23.4399 33.0013 23.3503 33Z" fill="#303030"/>
<path d="M4.0003 21.2899L4.1603 20.5999L6.7603 21.1899C6.9748 21.5861 7.10743 22.0214 7.1503 22.4699C7.19993 22.945 7.16951 23.425 7.0603 23.8899C6.93085 24.5352 6.63431 25.1352 6.2003 25.6299C5.78739 26.097 5.25497 26.4428 4.6603 26.6299C4.04739 26.8189 3.39551 26.8431 2.7703 26.6999C2.14372 26.5646 1.56617 26.2603 1.1003 25.8199C0.641569 25.3969 0.312165 24.8526 0.150299 24.2499C-0.0292664 23.5954 -0.0292664 22.9045 0.150299 22.2499C0.257777 21.76 0.450726 21.2929 0.720299 20.8699C0.975438 20.4853 1.31814 20.1665 1.7203 19.9399L2.0803 20.4899C1.7356 20.7016 1.43972 20.9839 1.21218 21.3183C0.984643 21.6527 0.830626 22.0316 0.760299 22.4299C0.636286 22.9473 0.646613 23.4877 0.790299 23.9999C0.924669 24.4863 1.1912 24.9259 1.5603 25.2699C1.93968 25.6367 2.41433 25.8896 2.9303 25.9999C3.43063 26.1404 3.95997 26.1404 4.4603 25.9999C4.93959 25.8417 5.37007 25.5628 5.7103 25.1899C6.05994 24.7873 6.3009 24.3019 6.4103 23.7799C6.57483 23.1468 6.53279 22.4776 6.2903 21.8699L4.0003 21.2899Z" fill="#303030"/>
<path d="M9.65992 14.9999L7.32992 18.1099L8.32992 19.8999L7.86992 20.5199L4.16992 13.7699L4.59992 13.1799L12.1299 14.7999L11.6599 15.4199L9.65992 14.9999ZM8.99992 14.8399L4.99992 13.9399L6.99992 17.5299L8.99992 14.8399Z" fill="#303030"/>
<path d="M9 8.5501L9.6 8.1001L13.41 13.2001L16.55 10.8501L16.93 11.3601L13.2 14.1501L9 8.5501Z" fill="#303030"/>
<path d="M15.2998 4.38008L15.9698 4.08008L18.6098 9.86008L22.1798 8.24008L22.4398 8.82008L18.1998 10.7501L15.2998 4.38008Z" fill="#303030"/>
<path d="M28.48 6.68003L28.63 7.31003L23.81 8.44003L22.21 1.62003L26.89 0.530029L27.03 1.15003L23.03 2.08003L23.6 4.50003L27.12 3.67003L27.27 4.29003L23.74 5.11003L24.34 7.64003L28.48 6.68003Z" fill="#303030"/>
<path d="M35.3498 6.92997L33.6798 4.72997C33.4933 4.74029 33.3064 4.74029 33.1198 4.72997L31.2398 4.78997L31.3098 7.00997H30.5698L30.3398 0.00996866L32.9998 -3.1339e-05C33.7519 -0.0694894 34.504 0.132721 35.1198 0.569969C35.3794 0.778962 35.588 1.04418 35.7301 1.3456C35.8721 1.64702 35.9439 1.97678 35.9398 2.30997C35.969 2.80416 35.8394 3.29473 35.5698 3.70997C35.2825 4.10853 34.8765 4.40603 34.4098 4.55997L36.1598 6.89997L35.3498 6.92997ZM34.6498 3.63997C34.8296 3.47531 34.9691 3.27154 35.0575 3.04439C35.1459 2.81725 35.1809 2.57281 35.1598 2.32997C35.165 2.08584 35.1146 1.84374 35.0124 1.62198C34.9101 1.40022 34.7588 1.20461 34.5698 1.04997C34.1089 0.737448 33.5547 0.592707 32.9998 0.639969L31.0998 0.709969L31.2198 4.20997L33.0798 4.14997C33.647 4.17096 34.2033 3.99026 34.6498 3.63997Z" fill="#303030"/>
<path d="M40.6396 5.07L40.2796 7.46L39.5496 7.35L39.9196 5L37.8496 0L38.6296 0.12L40.3996 4.38L43.3996 0.85L44.0996 1L40.6396 5.07Z" fill="#303030"/>
<path d="M50.5298 4.64993L51.3998 5.77993L51.0198 6.07993L50.1498 4.91993L49.5998 6.22993L49.1798 6.04993L49.7398 4.73993L48.2998 4.92993V4.44993L49.7198 4.28993L48.8398 3.15993L49.2298 2.85993L49.9998 3.99993L50.5398 2.67993L50.9698 2.85993L50.4598 4.19993L51.8998 3.99993V4.48993L50.5298 4.64993Z" fill="#303030"/>
<path d="M53.8704 12.7099C53.6343 12.3458 53.487 11.9314 53.4404 11.4999L54.0304 11.2399C54.0747 11.6363 54.2043 12.0184 54.4104 12.3599C54.6338 12.7428 54.9253 13.0817 55.2704 13.3599C55.6269 13.7012 56.0817 13.9216 56.5704 13.9899C56.747 14.0063 56.9249 13.9793 57.0887 13.9114C57.2525 13.8434 57.3973 13.7365 57.5104 13.5999C57.5934 13.5084 57.6566 13.4008 57.6962 13.2838C57.7357 13.1669 57.7508 13.043 57.7404 12.9199C57.7074 12.6762 57.6257 12.4416 57.5004 12.2299C57.3125 11.923 57.1089 11.6259 56.8904 11.3399C56.6242 10.9911 56.3836 10.6235 56.1704 10.2399C56.0075 9.95284 55.9182 9.6299 55.9104 9.29992C55.9097 8.92934 56.049 8.57218 56.3004 8.29992C56.5184 8.03604 56.8059 7.83857 57.1304 7.72992C57.493 7.62518 57.8778 7.62518 58.2404 7.72992C58.7076 7.88269 59.1394 8.12751 59.5104 8.44992C59.8183 8.70599 60.0907 9.00192 60.3204 9.32992C60.5329 9.63408 60.6918 9.97227 60.7904 10.3299L60.2204 10.6299C60.121 10.2966 59.9727 9.97979 59.7804 9.68992C59.5889 9.43106 59.3635 9.199 59.1104 8.99992C58.7593 8.66016 58.3058 8.44575 57.8204 8.38992C57.642 8.375 57.4627 8.40466 57.2987 8.47623C57.1346 8.5478 56.9909 8.65903 56.8804 8.79992C56.7954 8.89 56.7308 8.99741 56.6911 9.11477C56.6514 9.23214 56.6375 9.35669 56.6504 9.47992C56.6738 9.73209 56.756 9.97526 56.8904 10.1899C57.0304 10.4199 57.2304 10.7199 57.5004 11.0799C57.7681 11.4207 58.0088 11.7818 58.2204 12.1599C58.3868 12.4461 58.4796 12.7691 58.4904 13.0999C58.4911 13.4705 58.3518 13.8277 58.1004 14.0999C57.8817 14.3674 57.5898 14.5655 57.2604 14.6699C56.8985 14.7792 56.5124 14.7792 56.1504 14.6699C55.6801 14.5176 55.2449 14.2728 54.8704 13.9499C54.4668 13.5986 54.1283 13.1788 53.8704 12.7099Z" fill="#303030"/>
<path d="M63.9297 14.17L62.5197 12.17L63.0397 11.8L66.2897 16.44L65.7697 16.81L64.3597 14.81L59.1397 18.46L58.7197 17.85L63.9297 14.17Z" fill="#303030"/>
<path d="M61.6902 22.39C61.8687 21.7856 62.2156 21.2445 62.6902 20.83C63.1545 20.4141 63.7202 20.1279 64.3302 20C64.9521 19.8572 65.6007 19.8814 66.2102 20.07C66.7986 20.2645 67.3259 20.6092 67.7402 21.07C68.171 21.5656 68.4641 22.1656 68.5902 22.81C68.7559 23.4426 68.7559 24.1073 68.5902 24.74C68.4068 25.3421 68.0608 25.8819 67.5902 26.3C67.1131 26.727 66.5335 27.0233 65.9079 27.16C65.2823 27.2967 64.632 27.2691 64.0202 27.08C63.4274 26.8949 62.8977 26.5487 62.4902 26.08C62.0614 25.587 61.7684 24.9907 61.6402 24.35C61.4875 23.7033 61.5047 23.028 61.6902 22.39ZM63.0002 25.57C63.3341 25.9502 63.7668 26.2306 64.2502 26.38C64.7485 26.5245 65.2752 26.5417 65.7818 26.4298C66.2885 26.318 66.759 26.0808 67.1502 25.74C67.5193 25.4004 67.7919 24.9691 67.9402 24.49C68.0797 23.9841 68.0933 23.4517 67.98 22.9393C67.8667 22.4269 67.6299 21.95 67.2902 21.55C66.9417 21.1679 66.4957 20.8879 66.0002 20.74C65.4956 20.606 64.9648 20.606 64.4602 20.74C63.9511 20.8377 63.4798 21.0768 63.1002 21.43C62.7277 21.7708 62.4547 22.2062 62.3102 22.69C62.1744 23.1977 62.1744 23.7322 62.3102 24.24C62.4197 24.7361 62.6577 25.1947 63.0002 25.57Z" fill="#303030"/>
<path d="M60.9302 33.9999L63.5202 32.9999C63.5202 32.8199 63.5802 32.6399 63.6302 32.4499L64.1202 30.6399L62.0002 30.0899L62.1902 29.3799L68.9502 31.1899L68.2702 33.7199C68.1171 34.4581 67.7058 35.1176 67.1102 35.5799C66.8366 35.7699 66.5227 35.8941 66.1931 35.9427C65.8635 35.9912 65.5271 35.9629 65.2102 35.8599C64.7277 35.7552 64.2952 35.4891 63.9843 35.1055C63.6734 34.7219 63.5027 34.2437 63.5002 33.7499L60.7402 34.7499L60.9302 33.9999ZM64.2802 34.2799C64.3974 34.4924 64.5563 34.679 64.7474 34.8286C64.9385 34.9781 65.1579 35.0875 65.3924 35.1501C65.6268 35.2126 65.8715 35.2272 66.1118 35.1928C66.352 35.1584 66.5828 35.0758 66.7902 34.9499C67.2316 34.5954 67.5328 34.0957 67.6402 33.5399L68.1202 31.7399L64.7302 30.8299L64.2502 32.6299C64.0657 33.1663 64.0764 33.7506 64.2802 34.2799Z" fill="#303030"/>
<path d="M57.3401 40.4401L56.8301 40.0501L59.8301 36.1001L65.4101 40.3301L62.5101 44.1601L62.0001 43.7701L64.4501 40.5401L62.4501 39.0301L60.2601 41.9201L59.7601 41.5401L62.0001 38.6501L59.9301 37.0801L57.3401 40.4401Z" fill="#303030"/>
<path d="M55.0003 48.4099L53.5703 48.4899V48.0099L55.0003 47.9999L54.2303 46.8099L54.6203 46.5599L55.3803 47.7599L56.0003 46.4199L56.4303 46.6499L55.7503 47.9099L57.1803 47.8299V48.3199H55.7303L56.5003 49.5099L56.1103 49.7599L55.3503 48.5599L54.6903 49.8599L54.2703 49.6199L55.0003 48.4099Z" fill="#303030"/>
<path d="M42.0002 47.6099L43.2102 48.2799C43.4131 47.8902 43.6962 47.5479 44.0409 47.2756C44.3857 47.0033 44.7842 46.8071 45.2102 46.6999C45.6077 46.576 46.0257 46.5318 46.4402 46.5699C46.7999 46.5975 47.1455 46.7219 47.4402 46.9299C47.7067 47.1308 47.9027 47.4108 48.0002 47.7299C48.1208 48.1247 48.0995 48.5491 47.9402 48.9299C47.6893 49.4473 47.351 49.9175 46.9402 50.3199C47.2699 50.4971 47.5757 50.7155 47.8502 50.9699C48.0388 51.1648 48.1792 51.4011 48.2602 51.6599C48.3115 51.8617 48.3147 52.0726 48.2695 52.2759C48.2243 52.4791 48.1321 52.6688 48.0002 52.8299C47.7333 53.2146 47.335 53.4884 46.8802 53.5999C46.4809 53.7522 46.0395 53.7522 45.6402 53.5999C45.4627 53.5235 45.3052 53.407 45.1803 53.2596C45.0554 53.1121 44.9664 52.9376 44.9202 52.7499C44.8154 52.4198 44.8404 52.0622 44.9902 51.7499C45.2198 51.2953 45.5202 50.8801 45.8802 50.5199L43.4702 49.1799C43.3783 49.6508 43.358 50.1329 43.4102 50.6099H42.8002C42.7592 50.0225 42.827 49.4326 43.0002 48.8699L41.7402 48.1699L42.0002 47.6099ZM43.7402 48.6099L46.3902 50.0799C46.7375 49.7483 47.0251 49.3592 47.2402 48.9299C47.3501 48.64 47.3501 48.3199 47.2402 48.0299C47.1949 47.8567 47.1072 47.6974 46.985 47.5665C46.8628 47.4356 46.7099 47.3371 46.5402 47.2799C46.1251 47.1397 45.6754 47.1397 45.2602 47.2799C44.921 47.3694 44.6055 47.5322 44.336 47.7568C44.0664 47.9814 43.8494 48.2624 43.7002 48.5799L43.7402 48.6099ZM47.5002 52.6099C47.5656 52.4994 47.6065 52.3762 47.6203 52.2486C47.6341 52.1209 47.6204 51.9918 47.5802 51.8699C47.519 51.6724 47.4089 51.4936 47.2602 51.3499C47.0057 51.1352 46.7272 50.9506 46.4302 50.7999C46.127 51.0997 45.8617 51.4356 45.6402 51.7999C45.5193 52.0271 45.4907 52.2921 45.5602 52.5399C45.592 52.6543 45.6476 52.7607 45.7234 52.8521C45.7993 52.9434 45.8936 53.0177 46.0002 53.0699C46.2548 53.1659 46.5356 53.1659 46.7902 53.0699C47.0621 52.9974 47.2995 52.8309 47.4602 52.5999L47.5002 52.6099Z" fill="#303030"/>
<path d="M29.8096 55.3198L29.9496 48.3198H30.6596L30.5496 53.9198L33.3896 49.2598H33.7396L36.3996 53.9998L36.4996 48.4298H37.2096L37.0796 55.4298H36.4696L33.5296 50.1998L30.4196 55.3298L29.8096 55.3198Z" fill="#303030"/>
<path d="M26.33 48.0001C26.7873 48.4359 27.1145 48.9902 27.2752 49.6012C27.4359 50.2121 27.4237 50.8557 27.24 51.4601C27.0757 52.079 26.7475 52.6421 26.29 53.0901C25.8454 53.5271 25.2879 53.8318 24.68 53.9701C24.0387 54.1148 23.3711 54.0941 22.74 53.9101C22.111 53.7565 21.5323 53.443 21.06 53.0001C20.6095 52.5698 20.2875 52.0228 20.13 51.4201C19.9762 50.7971 19.9876 50.1447 20.1629 49.5274C20.3383 48.9101 20.6716 48.3492 21.13 47.9001C21.5667 47.4642 22.1123 47.1534 22.71 47.0001C23.348 46.8558 24.0122 46.8765 24.64 47.0601C25.2755 47.2212 25.858 47.5452 26.33 48.0001ZM22.92 47.6501C22.4308 47.764 21.9837 48.0135 21.63 48.3701C21.2616 48.737 20.9991 49.1965 20.87 49.7001C20.7305 50.2006 20.7305 50.7296 20.87 51.2301C20.9879 51.717 21.241 52.1607 21.6 52.5101C21.9765 52.8783 22.4414 53.1435 22.95 53.2801C23.4585 53.4096 23.9914 53.4096 24.5 53.2801C24.9895 53.1597 25.4382 52.9112 25.8 52.5601C26.1664 52.1917 26.4286 51.7328 26.56 51.2301C26.6998 50.7263 26.6998 50.1939 26.56 49.6901C26.432 49.205 26.1765 48.7631 25.82 48.4101C25.4415 48.0414 24.9723 47.7792 24.46 47.6501C23.9561 47.5108 23.4239 47.5108 22.92 47.6501Z" fill="#303030"/>
<path d="M15.3495 43L15.6195 45.75C15.7911 45.8233 15.958 45.9068 16.1195 46L17.7495 46.94L18.8495 45L19.4995 45.37L15.9995 51.4L13.7195 50.09C13.0456 49.7515 12.514 49.1844 12.2195 48.49C12.1108 48.1772 12.0742 47.8439 12.1123 47.5149C12.1504 47.1859 12.2622 46.8698 12.4395 46.59C12.672 46.1518 13.0405 45.8008 13.4895 45.59C13.9456 45.4011 14.4501 45.3626 14.9295 45.48L14.6395 42.54L15.3495 43ZM14.2095 46.16C13.9747 46.219 13.7541 46.3247 13.561 46.4708C13.368 46.617 13.2064 46.8006 13.086 47.0107C12.9655 47.2207 12.8887 47.4529 12.8601 47.6934C12.8315 47.9338 12.8517 48.1776 12.9195 48.41C13.154 48.9276 13.5603 49.3481 14.0695 49.6L15.6795 50.53L17.4295 47.53L15.8195 46.6C15.3568 46.2533 14.787 46.0799 14.2095 46.11V46.16Z" fill="#303030"/>
<path d="M9.43 38.3101L9.88 37.8601L13.33 41.4101L8.33 46.2901L5 42.8501L5.46 42.4001L8.29 45.3101L10 43.5801L7.52 41.0001L8 40.5401L10.53 43.1401L12.39 41.3301L9.43 38.3101Z" fill="#303030"/>
<path d="M2.00035 34.38L2.24035 33L2.71035 33.07L2.44035 34.49L3.77035 34L3.93035 34.44L2.58035 34.9L3.69035 35.84L3.37035 36.2L2.30035 35.2L2.05035 36.62L1.57035 36.53L1.85035 35.11L0.510352 35.59L0.360352 35.2L1.70035 34.73L0.590352 33.8L0.920352 33.44L2.00035 34.38Z" fill="#303030"/>
</g>
<defs>
<clipPath id="clip0_1374_36">
<rect width="68.93" height="55.46" fill="white"/>
</clipPath>
</defs>
</svg>
